# xmcd CD database file
#
# Track frame offsets:
#	150
#	25733
#	47297
#	67632
#	93678
#	112919
#	137546
#	155876
#	176361
#	204507
#	224998
#	244365
#	263718
#	282151
#	309648
#	345541
#
# Disc length: 4799 seconds
#
# Revision: 0
# Processed by: cddbd v1.5.2PL0 Copyright (c) Steve Scherf et al.
# Submitted via: Feurio! 1.68 - http://www.feurio.com
#
DISCID=e612bd10
DTITLE=Various Artist - Steppers Jams Vol. 1
DYEAR=1900
DGENRE=R&B
TTITLE0=Kalvin Bishop - Over And Over Again
TTITLE1=Michael Sutton - Nobody
TTITLE2=Vocal Poynt - Fly Away
TTITLE3=Vocal Poynt - Payback Is A Dog
TTITLE4=Sting - Tell Me
TTITLE5=Dave McMurray w/KEM - Searching
TTITLE6=Marion Meadows - Flava
TTITLE7=Glenn Jones - Every Time
TTITLE8=Durell - Struttin To Greatness
TTITLE9=Paul Hardcastle - Desire
TTITLE10=Pieces Of A Dream - Summer
TTITLE11=P-1 - P - 1 (Steppers Mix)
TTITLE12=Ron Isley - Prize Possession
TTITLE13=D. J. Ram - Gotta Get Up
TTITLE14=Berry J - Soul (Medley Mix)
TTITLE15=The Runaways - I Can't Believe
EXTD=
EXTT0=
EXTT1=
EXTT2=
EXTT3=
EXTT4=
EXTT5=
EXTT6=
EXTT7=
EXTT8=
EXTT9=
EXTT10=
EXTT11=
EXTT12=
EXTT13=
EXTT14=
EXTT15=
PLAYORDER=
